<?xml version="1.0" encoding="UTF-8"?><svg id="Layer_1" xmlns="http://www.w3.org/2000/svg" viewBox="0 0 300 300"><defs><style>.cls-1{fill:#f76808;}</style></defs><g><path class="cls-1" d="M202.54,94.74c-1.32,0-2.39,1.07-2.39,2.38s1.07,2.39,2.39,2.39,2.38-1.07,2.38-2.39-1.07-2.38-2.38-2.38Z"/><path class="cls-1" d="M215.53,94.74c-1.32,0-2.39,1.07-2.39,2.38s1.07,2.39,2.39,2.39,2.38-1.07,2.38-2.39-1.07-2.38-2.38-2.38Z"/><path class="cls-1" d="M228.52,94.74c-1.32,0-2.38,1.07-2.38,2.38s1.07,2.39,2.38,2.39,2.39-1.07,2.39-2.39-1.07-2.38-2.39-2.38Z"/></g><path class="cls-1" d="M215.41,220.92c-10.13,0-20.32,1.31-30.31,3.89-7.26,1.88-22.29,2.13-36.03,2.13s-28.76-.25-36.03-2.13c-9.99-2.58-20.18-3.89-30.31-3.89H15v22.61c0,3.95,3.2,7.15,7.15,7.15h253.87c3.94,0,7.14-3.2,7.14-7.14v-22.62h-67.74Zm-58.23,20.5h-17.48c-2.59-2.32-1.01-5.22,1.27-5.22h17.46c2.61,2.3,1.03,5.22-1.25,5.22Z"/><path class="cls-1" d="M271.02,60.42H28.98c-3.13,0-5.69,2.56-5.69,5.69V207.76c0,3.13,2.56,5.69,5.69,5.69h242.03c3.13,0,5.69-2.56,5.69-5.69V66.11c0-3.13-2.56-5.69-5.69-5.69Zm-80.5,130.2c0,1.44-1.17,2.61-2.61,2.61H110.25c-1.44,0-2.61-1.17-2.61-2.61v-7.55c0-15.67,12.75-28.42,28.43-28.42,1.96,0,3.89,.5,5.6,1.45,4.64,2.58,10.17,2.57,14.81,0,0,0,0,0,.01,0,1.7-.95,3.64-1.44,5.59-1.44,15.67,0,28.43,12.75,28.43,28.42v7.55ZM123.36,123.63c0-14.18,11.53-25.72,25.71-25.72s25.71,11.54,25.71,25.72-11.54,25.72-25.71,25.72-25.71-11.54-25.71-25.72Zm119.81-15.25c0,5.36-4.35,9.7-9.7,9.7h-19s-.09,0-.14,.02l-23.58,7.48c-.38,.12-.72-.29-.52-.64l3.88-6.97c.13-.23,.03-.52-.22-.62-3.53-1.45-6.01-4.92-6.01-8.97v-22.78c0-5.36,4.35-9.7,9.7-9.7h35.88c5.36,0,9.7,4.35,9.7,9.7v22.78Zm27.18,94.49c0,1.12-.91,2.03-2.03,2.03s-2.03-.91-2.03-2.03V71.26s-.03-.04-.1-.04H33.71V202.87c0,1.12-.91,2.03-2.03,2.03s-2.03-.91-2.03-2.03V71.13c0-2.19,1.8-3.96,4.02-3.96h232.53c2.29,0,4.15,1.84,4.15,4.09V202.87Z"/></svg>