<?xml version="1.0" encoding="UTF-8"?><svg id="Layer_1" xmlns="http://www.w3.org/2000/svg" viewBox="0 0 300 300"><defs><style>.cls-1{fill:#f76808;}</style></defs><g id="light_lightbulb_red"><g id="_5"><path class="cls-1" d="M115.89,223.04v10.17c0,4.02,3.26,7.28,7.28,7.28h51.66c4.02,0,7.28-3.26,7.28-7.28v-10.17H115.89Z"/><g><path class="cls-1" d="M171.18,148.32c.48-1.05,.35-2.22-.36-3.14-.71-.92-1.82-1.35-2.97-1.14-1.49,.27-3.4,1.2-5.99,2.93-8.21,5.47-18.82,5.47-27.03,0-2.6-1.73-4.5-2.66-5.99-2.93-1.15-.21-2.26,.22-2.97,1.14-.71,.92-.84,2.09-.36,3.14,5.97,12.93,16.03,39.23,16.39,70.1,0,.19-.02,.37-.06,.54h13.02c-.04-.17-.06-.35-.06-.54,.35-30.87,10.42-57.17,16.39-70.1Z"/><path class="cls-1" d="M149.79,62.57c-35.64-.43-65.44,28.95-65.51,64.59-.03,13.55,4.11,26.13,11.21,36.53,12.15,17.82,20.33,33.71,20.33,55.27h21.41c-.03-.16-.06-.32-.06-.49-.34-29.99-10.14-55.59-15.95-68.18-1.22-2.64-.87-5.71,.91-8.01,1.79-2.31,4.68-3.42,7.55-2.9,2.18,.39,4.58,1.52,7.78,3.65,6.61,4.41,15.17,4.41,21.78,0,3.2-2.13,5.59-3.26,7.77-3.65,2.87-.52,5.77,.59,7.55,2.9,1.78,2.3,2.13,5.37,.91,8.01-5.81,12.59-15.61,38.18-15.95,68.18,0,.17-.02,.33-.06,.49h22.71c0-21.49,8.04-37.38,20.21-55.1,7.15-10.41,11.33-23.01,11.33-36.59,0-35.48-28.55-64.29-63.92-64.71Z"/></g><path class="cls-1" d="M56,167.22c-.95,0-1.84-.58-2.21-1.51-.47-1.22,.13-2.59,1.35-3.06l13.71-5.3c1.22-.47,2.59,.14,3.06,1.35,.47,1.22-.13,2.59-1.35,3.06l-13.71,5.3c-.28,.11-.57,.16-.85,.16Z"/><path class="cls-1" d="M66.21,106.11c-.17,0-.34-.02-.5-.05l-14.22-3.09c-1.28-.28-2.09-1.54-1.81-2.81,.28-1.28,1.54-2.08,2.81-1.81l14.22,3.09c1.28,.28,2.09,1.54,1.81,2.81-.24,1.11-1.22,1.86-2.31,1.86Z"/><path class="cls-1" d="M94.03,61.42c-.6,0-1.2-.23-1.66-.68l-9.96-9.83c-.93-.92-.94-2.41-.02-3.34,.92-.93,2.41-.94,3.34-.02l9.96,9.83c.93,.92,.94,2.41,.02,3.34-.46,.47-1.07,.7-1.68,.7Z"/><path class="cls-1" d="M150,40.88c-1.31,0-2.36-1.06-2.36-2.36v-14.33c0-1.31,1.06-2.36,2.36-2.36s2.36,1.06,2.36,2.36v14.33c0,1.31-1.06,2.36-2.36,2.36Z"/><path class="cls-1" d="M243.51,167.22c-.28,0-.57-.05-.85-.16l-13.71-5.3c-1.22-.47-1.82-1.84-1.35-3.06,.47-1.22,1.84-1.82,3.06-1.35l13.71,5.3c1.22,.47,1.82,1.84,1.35,3.06-.36,.94-1.26,1.51-2.21,1.51Z"/><path class="cls-1" d="M233.79,106.11c-1.09,0-2.07-.76-2.31-1.86-.28-1.28,.53-2.53,1.81-2.81l14.22-3.09c1.28-.28,2.54,.53,2.81,1.81,.28,1.28-.53,2.53-1.81,2.81l-14.22,3.09c-.17,.04-.34,.05-.5,.05Z"/><path class="cls-1" d="M205.97,61.42c-.61,0-1.22-.24-1.68-.7-.92-.93-.91-2.43,.02-3.34l9.96-9.83c.93-.92,2.43-.91,3.34,.02,.92,.93,.91,2.43-.02,3.34l-9.96,9.83c-.46,.45-1.06,.68-1.66,.68Z"/></g></g><path class="cls-1" d="M173.79,257.51h-49.72c-1.31,0-2.36-1.06-2.36-2.36s1.06-2.36,2.36-2.36h49.72c1.31,0,2.36,1.06,2.36,2.36s-1.06,2.36-2.36,2.36Z"/><path class="cls-1" d="M167.61,275.18h-37.35c-1.31,0-2.36-1.06-2.36-2.36s1.06-2.36,2.36-2.36h37.35c1.31,0,2.36,1.06,2.36,2.36s-1.06,2.36-2.36,2.36Z"/></svg>