<?xml version="1.0" encoding="UTF-8"?><svg id="Layer_1" xmlns="http://www.w3.org/2000/svg" viewBox="0 0 300 300"><defs><style>.cls-1{fill:#f76808;}</style></defs><path class="cls-1" d="M213.26,193.42c-25.32,0-45.92,20.6-45.92,45.92s20.6,45.92,45.92,45.92,45.92-20.6,45.92-45.92-20.6-45.92-45.92-45.92Zm29.15,24.96l-29.57,37.28c-.8,.68-1.79,1.01-2.77,1.01-1.14,0-2.29-.45-3.13-1.35l-15.3-16.18c-.83-.88-.79-2.26,.09-3.09,.88-.83,2.27-.79,3.09,.09l15.21,16.08,28.95-36.56c.75-.95,2.13-1.11,3.07-.36,.95,.75,1.11,2.13,.36,3.07Z"/><path class="cls-1" d="M54.76,262.72c-1.21,0-2.19-.98-2.19-2.19V60.35c0-1.21,.98-2.19,2.19-2.19h31.8l1.8-13.1H54.65c-7.62,0-13.82,6.2-13.82,13.82v202.84c0,7.62,6.2,13.82,13.82,13.82h123.76c-3.86-3.72-7.13-8.04-9.65-12.83H54.76Z"/><path class="cls-1" d="M85.87,68.66c-.42-.48-.6-1.11-.52-1.74l.6-4.39h-29.01v195.81h109.76c-2.4-5.87-3.74-12.28-3.74-19,0-25.05,18.42-45.88,42.42-49.67V62.53h-27.08l.6,4.39c.09,.63-.1,1.26-.52,1.74-.42,.48-1.02,.75-1.65,.75H87.52c-.63,0-1.23-.27-1.65-.75Zm11.98,124.16h-10.33v-7.3h10.33v7.3Zm0-27.17h-10.33v-7.3h10.33v7.3Zm0-27.17h-10.33v-7.3h10.33v7.3Zm15.08-33h63.81v4.38h-63.81v-4.38Zm0,27.17h63.81v4.38h-63.81v-4.38Zm0,27.17h63.81v4.38h-63.81v-4.38Zm0,27.17h63.81v4.38h-63.81v-4.38Zm-15.08-75.67h-10.33v-7.3h10.33v7.3Z"/><path class="cls-1" d="M171.04,41.86c-.01-.1-.02-.2-.02-.3,0-1.73-1.41-3.14-3.14-3.14h-12.32c-2.39,0-4.64-.93-6.32-2.63-1.74-1.75-2.69-4.08-2.68-6.58-.5-9.02-6.12-14.55-14.66-14.47-6.72,.1-13.99,3.76-14.2,13.74v.26c-.01,.22-.02,.44-.01,.66,.04,2.37-.87,4.62-2.55,6.33-1.71,1.74-4,2.7-6.45,2.7h-12.33c-1.73,0-3.14,1.41-3.14,3.14,0,.1,0,.2-.02,.3l-3.19,23.17h84.2l-3.19-23.17Zm-38.91-4.02c-5.1,0-9.25-4.15-9.25-9.25s4.15-9.25,9.25-9.25,9.25,4.15,9.25,9.25-4.15,9.25-9.25,9.25Z"/><path class="cls-1" d="M132.13,23.72c-2.69,0-4.87,2.19-4.87,4.87s2.19,4.87,4.87,4.87,4.87-2.19,4.87-4.87-2.19-4.87-4.87-4.87Z"/><path class="cls-1" d="M207.58,58.16c1.21,0,2.19,.98,2.19,2.19V189.18c1.16-.08,2.32-.14,3.5-.14,2.81,0,5.57,.24,8.26,.69V58.88c0-7.62-6.2-13.82-13.82-13.82h-31.79l1.8,13.1h29.87Z"/></svg>