<?xml version="1.0" encoding="UTF-8"?><svg id="Layer_1" xmlns="http://www.w3.org/2000/svg" viewBox="0 0 300 300"><defs><style>.cls-1{fill:#f76808;}</style></defs><path class="cls-1" d="M188.73,262.45c-.08,.19-.32,.62-.93,.62H112.26c-.6,0-.85-.43-.93-.62-.08-.18-.21-.66,.21-1.09l2.15-2.18c2.74-2.79,5.04-5.92,6.85-9.3h58.98c1.81,3.38,4.11,6.5,6.85,9.3l2.15,2.18c.42,.43,.29,.91,.21,1.09Z"/><path class="cls-1" d="M177.82,246.3h-55.58c1.27-3.04,2.16-6.24,2.67-9.57l2.17-14.25h45.91l2.17,14.25c.5,3.32,1.4,6.53,2.67,9.57Z"/><path class="cls-1" d="M15.17,197.06v15.26c0,3.64,2.96,6.6,6.6,6.6H278.23c3.64,0,6.6-2.96,6.6-6.6v-15.26H15.17Zm134.92,15.39c-2.5,0-4.53-2.03-4.53-4.53s2.03-4.53,4.53-4.53,4.53,2.03,4.53,4.53-2.03,4.53-4.53,4.53Z"/><path class="cls-1" d="M278.23,36.94H21.77c-3.64,0-6.6,2.96-6.6,6.6V193.48H284.83V43.53c0-3.64-2.96-6.6-6.6-6.6Zm-5.58,142.69c0,.99-.8,1.79-1.79,1.79H29.13c-.99,0-1.79-.8-1.79-1.79V50.9c0-.99,.8-1.79,1.79-1.79h241.74c.99,0,1.79,.8,1.79,1.79V179.62Z"/><path class="cls-1" d="M30.92,52.68v125.15h238.16V52.68H30.92Zm185.64,100.11l-10.23-11.87-5.28,7.1-9.29-28.49,26.84,13.45-7.84,4.16,10.2,11.88-4.4,3.77Z"/></svg>