<?xml version="1.0" encoding="UTF-8"?><svg id="Layer_1" xmlns="http://www.w3.org/2000/svg" viewBox="0 0 58 58"><defs><style>.cls-1{fill:#f76808;}</style></defs><path class="cls-1" d="M33.55,23.66v-2.73c1.25-.53,2.53-.93,3.84-1.19,1.31-.27,2.68-.4,4.12-.4,.98,0,1.95,.08,2.9,.23,.95,.15,1.88,.34,2.78,.57v2.5c-.91-.34-1.83-.6-2.76-.77-.93-.17-1.9-.26-2.93-.26-1.44,0-2.82,.18-4.15,.54-1.33,.36-2.59,.86-3.81,1.51Zm0,12.5v-2.78c1.25-.53,2.53-.92,3.84-1.16,1.31-.25,2.68-.37,4.12-.37,.98,0,1.95,.08,2.9,.23,.95,.15,1.88,.34,2.78,.57v2.5c-.91-.34-1.83-.6-2.76-.77-.93-.17-1.9-.26-2.93-.26-1.44,0-2.82,.17-4.15,.51-1.33,.34-2.59,.85-3.81,1.53Zm0-6.25v-2.73c1.25-.53,2.53-.93,3.84-1.19,1.31-.27,2.68-.4,4.12-.4,.98,0,1.95,.08,2.9,.23,.95,.15,1.88,.34,2.78,.57v2.5c-.91-.34-1.83-.6-2.76-.77-.93-.17-1.9-.26-2.93-.26-1.44,0-2.82,.18-4.15,.54-1.33,.36-2.59,.86-3.81,1.51Zm-2.73,12.16c1.89-.95,3.75-1.66,5.57-2.13,1.82-.47,3.75-.71,5.8-.71,1.44,0,2.93,.11,4.46,.34,1.53,.23,2.85,.53,3.95,.91V16.1c-1.29-.64-2.65-1.12-4.09-1.42-1.44-.3-2.88-.45-4.32-.45-2.05,0-4.02,.31-5.94,.94-1.91,.63-3.72,1.51-5.43,2.64v24.26Zm-1.7,5.11c-1.93-1.44-4.03-2.55-6.31-3.32-2.27-.78-4.6-1.16-6.99-1.16-1.97,0-4.1,.39-6.39,1.16s-4.1,1.58-5.43,2.41V13.77c1.59-.91,3.45-1.63,5.57-2.16,2.12-.53,4.2-.8,6.25-.8,2.39,0,4.71,.32,6.96,.97s4.37,1.63,6.34,2.95c1.93-1.33,4.01-2.31,6.22-2.95s4.5-.97,6.85-.97c2.05,0,4.13,.27,6.25,.82s3.98,1.26,5.57,2.13V46.27c-1.29-.87-3.09-1.69-5.4-2.44-2.31-.76-4.45-1.14-6.42-1.14-2.39,0-4.68,.4-6.87,1.19-2.2,.8-4.26,1.89-6.19,3.3Z"/></svg>