<?xml version="1.0" encoding="utf-8"?>
<!-- Generator: Adobe Illustrator 26.4.1, SVG Export Plug-In . SVG Version: 6.00 Build 0)  -->
<svg version="1.1" id="Layer_1" xmlns="http://www.w3.org/2000/svg" xmlns:xlink="http://www.w3.org/1999/xlink" x="0px" y="0px"
	 viewBox="0 0 48 48" style="enable-background:new 0 0 48 48;" xml:space="preserve">
<style type="text/css">
	.st0{fill:#F76808;}
</style>
<path class="st0" d="M28,19.3v-2.4c1.1-0.5,2.2-0.8,3.4-1.1c1.1-0.2,2.4-0.3,3.6-0.3c0.9,0,1.7,0.1,2.5,0.2c0.8,0.1,1.7,0.3,2.5,0.5
	v2.2c-0.8-0.3-1.6-0.5-2.4-0.7c-0.8-0.2-1.7-0.2-2.6-0.2c-1.3,0-2.5,0.2-3.6,0.5C30.2,18.3,29.1,18.7,28,19.3z M28,30.3v-2.5
	c1.1-0.5,2.2-0.8,3.4-1c1.1-0.2,2.4-0.3,3.6-0.3c0.9,0,1.7,0.1,2.5,0.2c0.8,0.1,1.7,0.3,2.5,0.5v2.2c-0.8-0.3-1.6-0.5-2.4-0.7
	c-0.8-0.1-1.7-0.2-2.6-0.2c-1.3,0-2.5,0.1-3.6,0.5C30.2,29.2,29.1,29.7,28,30.3z M28,24.8v-2.4c1.1-0.5,2.2-0.8,3.4-1
	c1.1-0.2,2.4-0.4,3.6-0.4c0.9,0,1.7,0.1,2.5,0.2c0.8,0.1,1.7,0.3,2.5,0.5v2.2c-0.8-0.3-1.6-0.5-2.4-0.7C36.8,23.1,35.9,23,35,23
	c-1.3,0-2.5,0.2-3.6,0.5C30.2,23.8,29.1,24.2,28,24.8z M25.6,35.5c1.7-0.8,3.3-1.5,4.9-1.9c1.6-0.4,3.3-0.6,5.1-0.6
	c1.3,0,2.6,0.1,3.9,0.3c1.3,0.2,2.5,0.5,3.5,0.8V12.6c-1.1-0.6-2.3-1-3.6-1.2c-1.3-0.3-2.5-0.4-3.8-0.4c-1.8,0-3.5,0.3-5.2,0.8
	c-1.7,0.6-3.3,1.3-4.8,2.3L25.6,35.5z M24.1,40c-1.7-1.3-3.5-2.2-5.6-2.9c-2-0.7-4.1-1-6.1-1c-1.7,0-3.6,0.3-5.6,1S3.2,38.5,2,39.2
	V10.6c1.4-0.8,3-1.4,4.9-1.9C8.8,8.2,10.6,8,12.4,8c2.1,0,4.1,0.3,6.1,0.9s3.8,1.4,5.6,2.6c1.7-1.2,3.5-2,5.5-2.6s4-0.9,6-0.9
	c1.8,0,3.6,0.2,5.5,0.7s3.5,1.1,4.9,1.9v28.6c-1.1-0.8-2.7-1.5-4.8-2.2c-2-0.7-3.9-1-5.7-1c-2.1,0-4.1,0.3-6,1S25.8,38.8,24.1,40z"
	/>
</svg>
