<?xml version="1.0" encoding="UTF-8"?><svg id="Layer_1" xmlns="http://www.w3.org/2000/svg" viewBox="0 0 52 52"><defs><style>.cls-1{fill:#fff;}</style></defs><path class="cls-1" d="M22.31,37.37l17.69-17.69-2.87-2.81-14.81,14.81-7.5-7.5-2.81,2.81,10.31,10.37Zm3.69,13.63c-3.42,0-6.65-.66-9.69-1.97-3.04-1.31-5.7-3.1-7.97-5.37-2.27-2.27-4.06-4.93-5.38-7.97-1.31-3.04-1.97-6.27-1.97-9.69s.66-6.71,1.97-9.75c1.31-3.04,3.1-5.69,5.38-7.94,2.27-2.25,4.93-4.03,7.97-5.34,3.04-1.31,6.27-1.97,9.69-1.97s6.71,.66,9.75,1.97c3.04,1.31,5.69,3.09,7.94,5.34,2.25,2.25,4.03,4.9,5.34,7.94,1.31,3.04,1.97,6.29,1.97,9.75s-.66,6.65-1.97,9.69c-1.31,3.04-3.09,5.7-5.34,7.97-2.25,2.27-4.9,4.06-7.94,5.37-3.04,1.31-6.29,1.97-9.75,1.97Z"/></svg>