<?xml version="1.0" encoding="utf-8"?>
<!-- Generator: Adobe Illustrator 26.4.1, SVG Export Plug-In . SVG Version: 6.00 Build 0)  -->
<svg version="1.1" id="Layer_2_00000076593110288207383990000000882407862153292456_"
	 xmlns="http://www.w3.org/2000/svg" xmlns:xlink="http://www.w3.org/1999/xlink" x="0px" y="0px" viewBox="0 0 91.3 105"
	 style="enable-background:new 0 0 91.3 105;" xml:space="preserve">
<style type="text/css">
	.st0{fill:#F76808;}
	.st1{fill:none;stroke:#F76808;stroke-width:4.1454;stroke-miterlimit:10;}
	.st2{fill:#F76808;stroke:#F76808;stroke-width:4.1454;stroke-miterlimit:10;}
</style>
<g id="Layer_1-2">
	<path class="st0" d="M48.8,9.2v27.6c8.1,0,14.9,6.2,15.6,14.4C65,59.7,58.6,67.2,50,67.9c-0.4,0-0.8,0-1.2,0v29.7l6.3,0l0.1-11
		c4.4-0.8,8.6-2.5,12.4-5.1l7.8,7.9l9.2-9.1l-7.8-7.9c2.6-3.8,4.3-8,5.2-12.3l11,0.1l0.1-13l-11-0.1c-0.8-4.4-2.5-8.6-5.1-12.4
		l7.9-7.8l-9.1-9.2l-7.9,7.8c-3.8-2.6-8-4.3-12.3-5.2l0.1-11L48.8,9.2L48.8,9.2z"/>
	<line class="st1" x1="41.8" y1="97.6" x2="41.8" y2="9.2"/>
	<line class="st1" x1="42.3" y1="62.6" x2="8.8" y2="62.6"/>
	<circle class="st2" cx="5.2" cy="62.6" r="5"/>
	<line class="st1" x1="42.3" y1="41.7" x2="8.8" y2="41.7"/>
	<circle class="st2" cx="5.2" cy="41.7" r="5"/>
	<polyline class="st1" points="42.5,84.4 20.9,84.4 9.2,96.1 	"/>
	<circle class="st2" cx="5.6" cy="100" r="5"/>
	<polyline class="st1" points="42.1,20.6 20.5,20.6 8.8,8.9 	"/>
	<circle class="st2" cx="5.2" cy="5" r="5"/>
</g>
</svg>
