<?xml version="1.0" encoding="UTF-8"?><svg id="Layer_2" xmlns="http://www.w3.org/2000/svg" viewBox="0 0 76.7 104.79"><defs><style>.cls-1,.cls-2{fill:#f76808;}.cls-2,.cls-3{stroke:#f76808;stroke-miterlimit:10;stroke-width:3.98px;}.cls-3{fill:none;}</style></defs><g id="Layer_1-2"><g><path class="cls-1" d="M7.05,29.74c-3.11-1.22-5.49-2.69-7.05-4.32v17.81H.09s-.09,0-.09,0c0,4.94,11.15,10.22,27.65,10.3v-20.38c-7.77-.04-15.07-1.24-20.61-3.41Z"/><path class="cls-1" d="M7.07,52.36c-3.12-1.23-5.5-2.71-7.07-4.34v17.68H.09s0,0,0,0h-.09c0,4.94,11.15,10.22,27.65,10.3v-20.21c-7.76-.04-15.06-1.25-20.59-3.42Z"/><path class="cls-1" d="M7.07,74.83c-3.12-1.23-5.5-2.71-7.07-4.34v15.24c0,4.94,11.1,10.23,27.65,10.29v-17.77c-7.76-.04-15.06-1.25-20.59-3.42Z"/><path class="cls-1" d="M.08,20.63s0,.07,0,.11c.16,4.89,11.18,10.08,27.57,10.16V10.36C11.14,10.44,.08,15.71,.08,20.63Z"/></g><g><line class="cls-3" x1="34.82" y1="95.73" x2="34.82" y2="10.83"/><line class="cls-3" x1="34.35" y1="62.11" x2="66.51" y2="62.11"/><circle class="cls-2" cx="69.93" cy="62.07" r="4.76"/><line class="cls-3" x1="34.35" y1="42.03" x2="66.51" y2="42.03"/><circle class="cls-2" cx="69.93" cy="41.99" r="4.76"/><polyline class="cls-3" points="34.14 83.04 54.89 83.04 66.08 94.23"/><circle class="cls-2" cx="69.59" cy="98.04" r="4.76"/><polyline class="cls-3" points="34.51 21.75 55.25 21.75 66.44 10.56"/><circle class="cls-2" cx="69.95" cy="6.75" r="4.76"/></g></g></svg>