<?xml version="1.0" encoding="utf-8"?>
<!-- Generator: Adobe Illustrator 26.4.1, SVG Export Plug-In . SVG Version: 6.00 Build 0)  -->
<svg version="1.1" id="Layer_2_00000076593110288207383990000000882407862153292456_"
	 xmlns="http://www.w3.org/2000/svg" xmlns:xlink="http://www.w3.org/1999/xlink" x="0px" y="0px" viewBox="0 0 109.3 126.8"
	 style="enable-background:new 0 0 109.3 126.8;" xml:space="preserve">
<style type="text/css">
	.st0{fill:#F76808;}
	.st1{fill:none;stroke:#F76808;stroke-width:4.1454;stroke-miterlimit:10;}
	.st2{fill:#F76808;stroke:#F76808;stroke-width:4.1454;stroke-miterlimit:10;}
</style>
<g id="Layer_1-2">
	<path class="st0" d="M57.8,20.1v27.6c8.1,0,14.9,6.2,15.6,14.4c0.7,8.6-5.7,16.1-14.3,16.8c-0.4,0-0.8,0-1.2,0v29.7l6.3,0l0.1-11
		c4.4-0.8,8.6-2.5,12.4-5.1l7.8,7.9l9.2-9.1l-7.8-7.9c2.6-3.8,4.3-8,5.2-12.3l11,0.1l0.1-13L91,58c-0.8-4.4-2.5-8.6-5.1-12.4
		l7.9-7.8l-9.1-9.2l-7.9,7.8c-3.8-2.6-8-4.3-12.3-5.2l0.1-11L57.8,20.1L57.8,20.1z"/>
	<line class="st1" x1="50.8" y1="108.5" x2="50.8" y2="20.1"/>
	<line class="st1" x1="51.3" y1="73.5" x2="17.8" y2="73.5"/>
	<circle class="st2" cx="14.2" cy="73.5" r="5"/>
	<line class="st1" x1="51.3" y1="52.6" x2="17.8" y2="52.6"/>
	<circle class="st2" cx="14.2" cy="52.6" r="5"/>
	<polyline class="st1" points="51.5,95.3 29.9,95.3 18.2,107 	"/>
	<circle class="st2" cx="14.6" cy="110.9" r="5"/>
	<polyline class="st1" points="51.1,31.5 29.5,31.5 17.9,19.8 	"/>
	<circle class="st2" cx="14.2" cy="15.9" r="5"/>
</g>
</svg>
