<?xml version="1.0" encoding="utf-8"?>
<!-- Generator: Adobe Illustrator 26.4.1, SVG Export Plug-In . SVG Version: 6.00 Build 0)  -->
<svg version="1.1" id="Layer_2_00000162315079168203697720000004672475641416706740_"
	 xmlns="http://www.w3.org/2000/svg" xmlns:xlink="http://www.w3.org/1999/xlink" x="0px" y="0px" viewBox="0 0 91 124.3"
	 style="enable-background:new 0 0 91 124.3;" xml:space="preserve">
<style type="text/css">
	.st0{fill:#F76808;}
	.st1{fill:none;stroke:#F76808;stroke-width:3.2154;stroke-miterlimit:10;}
	.st2{fill:#F76808;stroke:#F76808;stroke-width:3.2154;stroke-miterlimit:10;}
</style>
<g id="Layer_1-2">
	<g>
		<path class="st0" d="M20,43.9c-2.5-1-4.4-2.2-5.7-3.5v14.4h0.1h-0.1c0,4,9,8.3,22.3,8.3V46.6C30.4,46.6,24.5,45.6,20,43.9L20,43.9
			z"/>
		<path class="st0" d="M20,62.1c-2.5-1-4.4-2.2-5.7-3.5v14.3h0.1l0,0h-0.1c0,4,9,8.3,22.3,8.3V64.9C30.4,64.9,24.5,63.9,20,62.1
			L20,62.1z"/>
		<path class="st0" d="M20,80.3c-2.5-1-4.4-2.2-5.7-3.5v12.3c0,4,9,8.3,22.3,8.3V83.1C30.4,83,24.5,82,20,80.3L20,80.3z"/>
		<path class="st0" d="M14.4,36.5C14.4,36.5,14.4,36.6,14.4,36.5c0.1,4,9,8.2,22.3,8.3V28.2C23.3,28.3,14.4,32.5,14.4,36.5z"/>
	</g>
	<g>
		<line class="st1" x1="42.5" y1="97.2" x2="42.5" y2="28.6"/>
		<line class="st1" x1="42.1" y1="70" x2="68.1" y2="70"/>
		<circle class="st2" cx="70.8" cy="70" r="3.8"/>
		<line class="st1" x1="42.1" y1="53.8" x2="68.1" y2="53.8"/>
		<circle class="st2" cx="70.8" cy="53.8" r="3.8"/>
		<polyline class="st1" points="41.9,86.9 58.7,86.9 67.7,96 		"/>
		<circle class="st2" cx="70.5" cy="99" r="3.8"/>
		<polyline class="st1" points="42.2,37.4 59,37.4 68,28.4 		"/>
		<circle class="st2" cx="70.8" cy="25.3" r="3.8"/>
	</g>
</g>
</svg>
