<?xml version="1.0" encoding="utf-8"?>
<!-- Generator: Adobe Illustrator 26.4.1, SVG Export Plug-In . SVG Version: 6.00 Build 0)  -->
<svg version="1.1" id="Layer_2_00000076593110288207383990000000882407862153292456_"
	 xmlns="http://www.w3.org/2000/svg" xmlns:xlink="http://www.w3.org/1999/xlink" x="0px" y="0px" viewBox="0 0 91.1 104.8"
	 style="enable-background:new 0 0 91.1 104.8;" xml:space="preserve">
<style type="text/css">
	.st0{fill:#F76808;}
	.st1{fill:none;stroke:#F76808;stroke-width:3.2154;stroke-miterlimit:10;}
	.st2{fill:#F76808;stroke:#F76808;stroke-width:3.2154;stroke-miterlimit:10;}
</style>
<g id="Layer_1-2">
	<path class="st0" d="M48.2,18.8v21.4c6.3,0,11.6,4.8,12.1,11.1c0.5,6.7-4.5,12.5-11.1,13c-0.3,0-0.6,0-1,0v23l4.9,0l0-8.6
		c3.4-0.6,6.6-2,9.6-3.9l6,6.1l7.2-7.1l-6-6.1c2-2.9,3.4-6.2,4-9.6l8.6,0l0.1-10.1l-8.6,0c-0.6-3.4-2-6.6-3.9-9.6l6.1-6l-7.1-7.2
		l-6.1,6c-2.9-2-6.2-3.4-9.6-4l0-8.6L48.2,18.8L48.2,18.8z"/>
	<line class="st1" x1="42.8" y1="87.4" x2="42.8" y2="18.8"/>
	<line class="st1" x1="43.2" y1="60.2" x2="17.2" y2="60.2"/>
	<circle class="st2" cx="14.4" cy="60.2" r="3.8"/>
	<line class="st1" x1="43.2" y1="44" x2="17.2" y2="44"/>
	<circle class="st2" cx="14.4" cy="44" r="3.8"/>
	<polyline class="st1" points="43.3,77.2 26.6,77.2 17.5,86.2 	"/>
	<circle class="st2" cx="14.7" cy="89.3" r="3.8"/>
	<polyline class="st1" points="43,27.6 26.3,27.6 17.2,18.6 	"/>
	<circle class="st2" cx="14.4" cy="15.5" r="3.8"/>
</g>
</svg>
