<?xml version="1.0" encoding="utf-8"?>
<!-- Generator: Adobe Illustrator 26.4.1, SVG Export Plug-In . SVG Version: 6.00 Build 0)  -->
<svg version="1.1" id="Layer_2_00000162315079168203697720000004672475641416706740_"
	 xmlns="http://www.w3.org/2000/svg" xmlns:xlink="http://www.w3.org/1999/xlink" x="0px" y="0px" viewBox="0 0 91 124.3"
	 style="enable-background:new 0 0 91 124.3;" xml:space="preserve">
<style type="text/css">
	.st0{fill:#1A2744;}
	.st1{fill:none;stroke:#1A2744;stroke-width:4.1454;stroke-miterlimit:10;}
	.st2{fill:#1A2744;stroke:#1A2744;stroke-width:4.1454;stroke-miterlimit:10;}
</style>
<g id="Layer_1-2">
	<g>
		<path class="st0" d="M12.9,38.6c-3.2-1.3-5.7-2.8-7.3-4.5v18.6h0.1H5.6c0,5.1,11.6,10.6,28.8,10.7V42.1
			C26.3,42.1,18.7,40.8,12.9,38.6L12.9,38.6z"/>
		<path class="st0" d="M13,62.1c-3.2-1.3-5.7-2.8-7.4-4.5V76h0.1l0,0H5.6c0,5.1,11.6,10.6,28.8,10.7v-21
			C26.3,65.7,18.7,64.4,13,62.1L13,62.1z"/>
		<path class="st0" d="M13,85.5c-3.2-1.3-5.7-2.8-7.4-4.5v15.9c0,5.1,11.6,10.7,28.8,10.7V89.1C26.3,89.1,18.7,87.8,13,85.5L13,85.5
			z"/>
		<path class="st0" d="M5.7,29.1c0,0,0,0.1,0,0.1c0.2,5.1,11.6,10.5,28.7,10.6V18.4C17.2,18.5,5.7,24,5.7,29.1z"/>
	</g>
	<g>
		<line class="st1" x1="41.9" y1="107.3" x2="41.9" y2="18.9"/>
		<line class="st1" x1="41.4" y1="72.3" x2="74.9" y2="72.3"/>
		<circle class="st2" cx="78.4" cy="72.2" r="5"/>
		<line class="st1" x1="41.4" y1="51.4" x2="74.9" y2="51.4"/>
		<circle class="st2" cx="78.4" cy="51.3" r="5"/>
		<polyline class="st1" points="41.2,94.1 62.8,94.1 74.4,105.7 		"/>
		<circle class="st2" cx="78.1" cy="109.7" r="5"/>
		<polyline class="st1" points="41.5,30.2 63.1,30.2 74.8,18.6 		"/>
		<circle class="st2" cx="78.5" cy="14.6" r="5"/>
	</g>
</g>
</svg>
