<?xml version="1.0" encoding="UTF-8"?><svg id="Layer_2" xmlns="http://www.w3.org/2000/svg" viewBox="0 0 91.11 104.79"><defs><style>.cls-1,.cls-2{fill:#f76808;}.cls-2,.cls-3{stroke:#f76808;stroke-miterlimit:10;stroke-width:3.98px;}.cls-3{fill:none;}</style></defs><g id="Layer_1-2"><path class="cls-1" d="M48.6,10.83v26.46c7.76-.02,14.34,5.94,14.96,13.8,.65,8.25-5.52,15.46-13.77,16.11-.4,.03-.8,.03-1.19,.03v28.51l6.04,.03,.05-10.59c4.18-.79,8.23-2.42,11.89-4.86l7.46,7.54,8.87-8.78-7.46-7.54c2.48-3.64,4.15-7.67,4.99-11.84l10.6,.06,.07-12.49-10.59-.06c-.79-4.18-2.42-8.22-4.86-11.89l7.54-7.46-8.78-8.88-7.54,7.46c-3.64-2.48-7.67-4.16-11.84-4.99l.06-10.6-6.49-.03Z"/><line class="cls-3" x1="41.88" y1="95.73" x2="41.88" y2="10.83"/><line class="cls-3" x1="42.35" y1="62.11" x2="10.19" y2="62.11"/><circle class="cls-2" cx="6.78" cy="62.07" r="4.76"/><line class="cls-3" x1="42.35" y1="42.03" x2="10.19" y2="42.03"/><circle class="cls-2" cx="6.78" cy="41.99" r="4.76"/><polyline class="cls-3" points="42.56 83.04 21.82 83.04 10.63 94.23"/><circle class="cls-2" cx="7.11" cy="98.04" r="4.76"/><polyline class="cls-3" points="42.2 21.75 21.45 21.75 10.26 10.56"/><circle class="cls-2" cx="6.75" cy="6.75" r="4.76"/></g></svg>