<?xml version="1.0" encoding="UTF-8"?><svg id="Layer_1" xmlns="http://www.w3.org/2000/svg" viewBox="0 0 48 48"><defs><style>.cls-1{fill:#fff;}</style></defs><path class="cls-1" d="M23.05,46.09c-1.81,0-3.51-.17-5.08-.52-1.58-.35-3.03-.86-4.37-1.55,1.38-5.14,3.27-10.11,5.67-14.93s5.62-8.84,9.68-12.08c-4.84,2.33-9.03,5.57-12.6,9.71-3.56,4.14-5.99,8.85-7.29,14.12-.17-.17-.33-.32-.49-.45-.15-.13-.31-.28-.49-.45-1.94-1.94-3.43-4.17-4.47-6.67-1.04-2.5-1.55-5.14-1.55-7.9,0-2.98,.56-5.85,1.68-8.61,1.12-2.76,2.74-5.2,4.86-7.32,3.32-3.41,7.64-5.62,12.95-6.64s13.26-1.15,23.83-.42c.82,10.28,.7,18.16-.36,23.64-1.06,5.48-3.31,9.95-6.77,13.41-2.07,2.16-4.43,3.81-7.06,4.95-2.63,1.14-5.35,1.72-8.16,1.72Z"/></svg>