<?xml version="1.0" encoding="UTF-8"?><svg id="Layer_1" xmlns="http://www.w3.org/2000/svg" viewBox="0 0 48 48"><defs><style>.cls-1{fill:#fff;}</style></defs><path class="cls-1" d="M44.19,47L27.39,30.2c-1.28,1.11-2.77,1.97-4.47,2.59-1.7,.62-3.51,.93-5.43,.93-4.6,0-8.5-1.6-11.69-4.79-3.19-3.19-4.79-7.05-4.79-11.56S2.6,8.99,5.79,5.79C8.99,2.6,12.86,1,17.42,1c4.51,0,8.36,1.6,11.53,4.79,3.17,3.19,4.76,7.05,4.76,11.56,0,1.83-.3,3.6-.89,5.3-.6,1.7-1.49,3.3-2.68,4.79l16.87,16.74-2.81,2.81ZM17.42,29.88c3.45,0,6.39-1.22,8.82-3.67,2.43-2.45,3.64-5.4,3.64-8.85s-1.21-6.4-3.64-8.85c-2.43-2.45-5.37-3.67-8.82-3.67s-6.46,1.22-8.91,3.67c-2.45,2.45-3.67,5.4-3.67,8.85s1.22,6.4,3.67,8.85c2.45,2.45,5.42,3.67,8.91,3.67Z"/></svg>