<?xml version="1.0" encoding="utf-8"?>
<!-- Generator: Adobe Illustrator 26.4.1, SVG Export Plug-In . SVG Version: 6.00 Build 0)  -->
<svg version="1.1" id="Layer_1" xmlns="http://www.w3.org/2000/svg" xmlns:xlink="http://www.w3.org/1999/xlink" x="0px" y="0px"
	 viewBox="0 0 60 60" style="enable-background:new 0 0 60 60;" xml:space="preserve">
<style type="text/css">
	.st0{fill:#FFFFFF;}
</style>
<path class="st0" d="M30,6C16.7,6,6,16.7,6,30s10.7,24,24,24s24-10.7,24-24S43.3,6,30,6z M21,16.8c1.7,0,2.8,1.1,2.8,2.6
	s-1.1,2.6-3,2.6c-1.7,0-2.8-1.1-2.8-2.6S19.1,16.8,21,16.8z M24,40h-6V24h6V40z M44,40h-5.6v-8.7c0-2.4-1.5-3-2.1-3s-2.4,0.4-2.4,3
	c0,0.4,0,8.7,0,8.7H28V24h5.8v2.2c0.8-1.3,2.3-2.2,5.1-2.2c2.8,0,5.1,2.2,5.1,7.3V40z"/>
</svg>
