<?xml version="1.0" encoding="utf-8"?>
<!-- Generator: Adobe Illustrator 26.4.1, SVG Export Plug-In . SVG Version: 6.00 Build 0)  -->
<svg version="1.1" id="Layer_1" xmlns="http://www.w3.org/2000/svg" xmlns:xlink="http://www.w3.org/1999/xlink" x="0px" y="0px"
	 viewBox="0 0 48 48" style="enable-background:new 0 0 48 48;" xml:space="preserve">
<style type="text/css">
	.st0{fill:#1A2744;}
</style>
<path class="st0" d="M27,27c1.7,0,3.1-0.6,4.2-1.8c1.2-1.2,1.8-2.6,1.8-4.2s-0.6-3.1-1.8-4.2C30.1,15.6,28.7,15,27,15
	s-3.1,0.6-4.2,1.8S21,19.3,21,21s0.6,3.1,1.8,4.2S25.3,27,27,27z M8,34V8h38v26H8z M2,40V14h3v23h35v3H2z M11,16
	c1.4,0,2.6-0.5,3.6-1.4S16,12.4,16,11h-5V16z M43,16v-5h-5c0,1.4,0.5,2.6,1.5,3.6S41.6,16,43,16z M38,31h5v-5
	c-1.4,0-2.6,0.5-3.5,1.5C38.5,28.4,38,29.6,38,31z M11,31h5c0-1.4-0.5-2.6-1.4-3.5c-1-1-2.1-1.5-3.6-1.5V31z"/>
</svg>
