<?xml version="1.0" encoding="utf-8"?>
<!-- Generator: Adobe Illustrator 26.4.1, SVG Export Plug-In . SVG Version: 6.00 Build 0)  -->
<svg version="1.1" id="Layer_1" xmlns="http://www.w3.org/2000/svg" xmlns:xlink="http://www.w3.org/1999/xlink" x="0px" y="0px"
	 viewBox="0 0 48 48" style="enable-background:new 0 0 48 48;" xml:space="preserve">
<style type="text/css">
	.st0{fill:#1A2744;}
</style>
<path class="st0" d="M8,44l8.4-3.3c-1.1-2.4-1.9-4.7-2.4-6.8c-0.5-2.1-0.8-4.6-1-7.3l-3.2,2.2c-0.6,0.4-1,0.9-1.3,1.5S8,31.5,8,32.2
	V44z M18.3,40h11.4c1.1-2.4,1.9-4.8,2.4-7.3c0.6-2.5,0.8-4.9,0.8-7.4c0-4.2-0.8-8.1-2.5-11.8c-1.7-3.7-3.8-6.5-6.5-8.4
	c-2.7,1.9-4.9,4.7-6.5,8.4S15,21.2,15,25.4c0,2.4,0.3,4.9,0.9,7.4C16.4,35.2,17.2,37.6,18.3,40z M24,25.5c-1,0-1.8-0.3-2.5-1
	c-0.7-0.7-1-1.5-1-2.5s0.3-1.8,1-2.5c0.7-0.7,1.5-1,2.5-1s1.8,0.3,2.5,1c0.7,0.7,1,1.5,1,2.5s-0.3,1.8-1,2.5
	C25.8,25.2,25,25.5,24,25.5z M40,44V32.2c0-0.7-0.2-1.3-0.5-1.9c-0.3-0.6-0.8-1.1-1.3-1.5L35,26.6c-0.2,2.8-0.5,5.2-1,7.3
	c-0.5,2.1-1.3,4.4-2.4,6.8L40,44z"/>
</svg>
