<?xml version="1.0" encoding="utf-8"?>
<!-- Generator: Adobe Illustrator 26.4.1, SVG Export Plug-In . SVG Version: 6.00 Build 0)  -->
<svg version="1.1" id="Layer_1" xmlns="http://www.w3.org/2000/svg" xmlns:xlink="http://www.w3.org/1999/xlink" x="0px" y="0px"
	 viewBox="0 0 48 48" style="enable-background:new 0 0 48 48;" xml:space="preserve">
<style type="text/css">
	.st0{fill:#1A2744;}
</style>
<path class="st0" d="M22.6,34h3V22h-3V34z M24,18.3c0.5,0,0.9-0.1,1.2-0.5s0.5-0.7,0.5-1.1c0-0.5-0.2-0.9-0.5-1.2
	C24.9,15.2,24.5,15,24,15s-0.9,0.2-1.2,0.5s-0.5,0.7-0.5,1.2s0.2,0.9,0.5,1.1C23.1,18.2,23.5,18.3,24,18.3z M24,44
	c-2.7,0-5.3-0.5-7.8-1.6c-2.4-1-4.6-2.5-6.4-4.3s-3.2-3.9-4.3-6.4S4,26.7,4,24c0-2.7,0.5-5.3,1.6-7.8s2.5-4.5,4.3-6.4
	s3.9-3.2,6.4-4.3S21.3,4,24,4c2.7,0,5.3,0.5,7.8,1.6s4.6,2.5,6.3,4.3c1.8,1.8,3.2,3.9,4.3,6.4c1.1,2.4,1.6,5,1.6,7.8
	c0,2.7-0.5,5.3-1.6,7.8c-1,2.4-2.5,4.6-4.3,6.4c-1.8,1.8-3.9,3.2-6.4,4.3C29.4,43.5,26.8,44,24,44z"/>
</svg>
